<svg xmlns="http://www.w3.org/2000/svg" xmlns:xlink="http://www.w3.org/1999/xlink" contentStyleType="text/css" data-diagram-type="CLASS" height="1049px" preserveAspectRatio="none" style="width:1618px;height:1049px;background:#FFFFFF;" version="1.1" viewBox="0 0 1618 1049" width="1618px" zoomAndPan="magnify"><defs/><g><!--cluster Models--><g id="cluster_Models"><path d="M125.68,367 L182.8782,367 A3.75,3.75 0 0 1 185.3782,369.5 L192.3782,389.2969 L776.68,389.2969 A2.5,2.5 0 0 1 779.18,391.7969 L779.18,1039.5 A2.5,2.5 0 0 1 776.68,1042 L125.68,1042 A2.5,2.5 0 0 1 123.18,1039.5 L123.18,369.5 A2.5,2.5 0 0 1 125.68,367 " fill="transparent" style="stroke:#000000;stroke-width:1.5;"/><line style="stroke:#000000;stroke-width:1.5;" x1="123.18" x2="192.3782" y1="389.2969" y2="389.2969"/><text fill="#000000" font-family="sans-serif" font-size="14" font-weight="bold" lengthAdjust="spacing" textLength="56.1982" x="127.18" y="381.9951">Models</text></g><!--cluster Controllers--><g id="cluster_Controllers"><path d="M17.68,154 L106.0843,154 A3.75,3.75 0 0 1 108.5843,156.5 L115.5843,176.2969 L584.68,176.2969 A2.5,2.5 0 0 1 587.18,178.7969 L587.18,315.5 A2.5,2.5 0 0 1 584.68,318 L17.68,318 A2.5,2.5 0 0 1 15.18,315.5 L15.18,156.5 A2.5,2.5 0 0 1 17.68,154 " fill="transparent" style="stroke:#000000;stroke-width:1.5;"/><line style="stroke:#000000;stroke-width:1.5;" x1="15.18" x2="115.5843" y1="176.2969" y2="176.2969"/><text fill="#000000" font-family="sans-serif" font-size="14" font-weight="bold" lengthAdjust="spacing" textLength="87.4043" x="19.18" y="168.9951">Controllers</text></g><!--cluster Middleware--><g id="cluster_Middleware"><path d="M801.68,170 L894.5277,170 A3.75,3.75 0 0 1 897.0277,172.5 L904.0277,192.2969 L1608.68,192.2969 A2.5,2.5 0 0 1 1611.18,194.7969 L1611.18,299.5 A2.5,2.5 0 0 1 1608.68,302 L801.68,302 A2.5,2.5 0 0 1 799.18,299.5 L799.18,172.5 A2.5,2.5 0 0 1 801.68,170 " fill="transparent" style="stroke:#000000;stroke-width:1.5;"/><line style="stroke:#000000;stroke-width:1.5;" x1="799.18" x2="904.0277" y1="192.2969" y2="192.2969"/><text fill="#000000" font-family="sans-serif" font-size="14" font-weight="bold" lengthAdjust="spacing" textLength="91.8477" x="803.18" y="184.9951">Middleware</text></g><!--cluster Routes--><g id="cluster_Routes"><path d="M497.68,6 L553.5657,6 A3.75,3.75 0 0 1 556.0657,8.5 L563.0657,28.2969 L972.68,28.2969 A2.5,2.5 0 0 1 975.18,30.7969 L975.18,102.5 A2.5,2.5 0 0 1 972.68,105 L497.68,105 A2.5,2.5 0 0 1 495.18,102.5 L495.18,8.5 A2.5,2.5 0 0 1 497.68,6 " fill="transparent" style="stroke:#000000;stroke-width:1.5;"/><line style="stroke:#000000;stroke-width:1.5;" x1="495.18" x2="563.0657" y1="28.2969" y2="28.2969"/><text fill="#000000" font-family="sans-serif" font-size="14" font-weight="bold" lengthAdjust="spacing" textLength="54.8857" x="499.18" y="20.9951">Routes</text></g><!--cluster Utils--><g id="cluster_Utils"><path d="M613.68,178.5 L650.6712,178.5 A3.75,3.75 0 0 1 653.1712,181 L660.1712,200.7969 L772.68,200.7969 A2.5,2.5 0 0 1 775.18,203.2969 L775.18,291 A2.5,2.5 0 0 1 772.68,293.5 L613.68,293.5 A2.5,2.5 0 0 1 611.18,291 L611.18,181 A2.5,2.5 0 0 1 613.68,178.5 " fill="transparent" style="stroke:#000000;stroke-width:1.5;"/><line style="stroke:#000000;stroke-width:1.5;" x1="611.18" x2="660.1712" y1="200.7969" y2="200.7969"/><text fill="#000000" font-family="sans-serif" font-size="14" font-weight="bold" lengthAdjust="spacing" textLength="35.9912" x="615.18" y="193.4951">Utils</text></g><!--class User--><g id="elem_User"><rect codeLine="2" fill="#F1F1F1" height="178.375" id="User" rx="2.5" ry="2.5" style="stroke:#181818;stroke-width:0.5;" width="166.4307" x="421.18" y="402"/><ellipse cx="484.1903" cy="418" fill="#ADD1B2" rx="11" ry="11" style="stroke:#181818;stroke-width:1;"/><path d="M487.159,423.6406 Q486.5809,423.9375 485.9403,424.0781 Q485.2996,424.2344 484.5965,424.2344 Q482.0965,424.2344 480.7684,422.5938 Q479.4559,420.9375 479.4559,417.8125 Q479.4559,414.6875 480.7684,413.0313 Q482.0965,411.375 484.5965,411.375 Q485.2996,411.375 485.9403,411.5313 Q486.5965,411.6875 487.159,411.9844 L487.159,414.7031 Q486.534,414.125 485.9403,413.8594 Q485.3465,413.5781 484.7215,413.5781 Q483.3778,413.5781 482.6903,414.6563 Q482.0028,415.7188 482.0028,417.8125 Q482.0028,419.9063 482.6903,420.9844 Q483.3778,422.0469 484.7215,422.0469 Q485.3465,422.0469 485.9403,421.7813 Q486.534,421.5 487.159,420.9219 L487.159,423.6406 Z " fill="#000000"/><text fill="#000000" font-family="sans-serif" font-size="14" lengthAdjust="spacing" textLength="31.9102" x="504.6903" y="422.8467">User</text><line style="stroke:#181818;stroke-width:0.5;" x1="422.18" x2="586.6107" y1="434" y2="434"/><ellipse cx="432.18" cy="447.6484" fill="transparent" rx="3" ry="3" style="stroke:#038048;stroke-width:1;"/><text fill="#000000" font-family="sans-serif" font-size="14" lengthAdjust="spacing" textLength="119.6084" x="441.18" y="450.9951">firstName: String</text><ellipse cx="432.18" cy="463.9453" fill="transparent" rx="3" ry="3" style="stroke:#038048;stroke-width:1;"/><text fill="#000000" font-family="sans-serif" font-size="14" lengthAdjust="spacing" textLength="117.5029" x="441.18" y="467.292">lastName: String</text><ellipse cx="432.18" cy="480.2422" fill="transparent" rx="3" ry="3" style="stroke:#038048;stroke-width:1;"/><text fill="#000000" font-family="sans-serif" font-size="14" lengthAdjust="spacing" textLength="89.5576" x="441.18" y="483.5889">email: String</text><ellipse cx="432.18" cy="496.5391" fill="transparent" rx="3" ry="3" style="stroke:#038048;stroke-width:1;"/><text fill="#000000" font-family="sans-serif" font-size="14" lengthAdjust="spacing" textLength="117.6602" x="441.18" y="499.8857">password: String</text><ellipse cx="432.18" cy="512.8359" fill="transparent" rx="3" ry="3" style="stroke:#038048;stroke-width:1;"/><text fill="#000000" font-family="sans-serif" font-size="14" lengthAdjust="spacing" textLength="77.7725" x="441.18" y="516.1826">role: String</text><ellipse cx="432.18" cy="529.1328" fill="transparent" rx="3" ry="3" style="stroke:#038048;stroke-width:1;"/><text fill="#000000" font-family="sans-serif" font-size="14" lengthAdjust="spacing" textLength="114.4473" x="441.18" y="532.4795">imageUrl: String</text><ellipse cx="432.18" cy="545.4297" fill="transparent" rx="3" ry="3" style="stroke:#038048;stroke-width:1;"/><text fill="#000000" font-family="sans-serif" font-size="14" lengthAdjust="spacing" textLength="140.4307" x="441.18" y="548.7764">inventory: [Product]</text><ellipse cx="432.18" cy="561.7266" fill="transparent" rx="3" ry="3" style="stroke:#038048;stroke-width:1;"/><text fill="#000000" font-family="sans-serif" font-size="14" lengthAdjust="spacing" textLength="111.3301" x="441.18" y="565.0732">createdAt: Date</text><line style="stroke:#181818;stroke-width:0.5;" x1="422.18" x2="586.6107" y1="572.375" y2="572.375"/></g><!--class Product--><g id="elem_Product"><rect codeLine="13" fill="#F1F1F1" height="145.7813" id="Product" rx="2.5" ry="2.5" style="stroke:#181818;stroke-width:0.5;" width="154.7891" x="531.68" y="880"/><ellipse cx="577.9696" cy="896" fill="#ADD1B2" rx="11" ry="11" style="stroke:#181818;stroke-width:1;"/><path d="M580.9383,901.6406 Q580.3602,901.9375 579.7196,902.0781 Q579.0789,902.2344 578.3758,902.2344 Q575.8758,902.2344 574.5477,900.5938 Q573.2352,898.9375 573.2352,895.8125 Q573.2352,892.6875 574.5477,891.0313 Q575.8758,889.375 578.3758,889.375 Q579.0789,889.375 579.7196,889.5313 Q580.3758,889.6875 580.9383,889.9844 L580.9383,892.7031 Q580.3133,892.125 579.7196,891.8594 Q579.1258,891.5781 578.5008,891.5781 Q577.1571,891.5781 576.4696,892.6563 Q575.7821,893.7188 575.7821,895.8125 Q575.7821,897.9063 576.4696,898.9844 Q577.1571,900.0469 578.5008,900.0469 Q579.1258,900.0469 579.7196,899.7813 Q580.3133,899.5 580.9383,898.9219 L580.9383,901.6406 Z " fill="#000000"/><text fill="#000000" font-family="sans-serif" font-size="14" lengthAdjust="spacing" textLength="53.71" x="598.4696" y="900.8467">Product</text><line style="stroke:#181818;stroke-width:0.5;" x1="532.68" x2="685.4691" y1="912" y2="912"/><ellipse cx="542.68" cy="925.6484" fill="transparent" rx="3" ry="3" style="stroke:#038048;stroke-width:1;"/><text fill="#000000" font-family="sans-serif" font-size="14" lengthAdjust="spacing" textLength="90.6514" x="551.68" y="928.9951">name: String</text><ellipse cx="542.68" cy="941.9453" fill="transparent" rx="3" ry="3" style="stroke:#038048;stroke-width:1;"/><text fill="#000000" font-family="sans-serif" font-size="14" lengthAdjust="spacing" textLength="128.7891" x="551.68" y="945.292">description: String</text><ellipse cx="542.68" cy="958.2422" fill="transparent" rx="3" ry="3" style="stroke:#038048;stroke-width:1;"/><text fill="#000000" font-family="sans-serif" font-size="14" lengthAdjust="spacing" textLength="100.249" x="551.68" y="961.5889">price: Number</text><ellipse cx="542.68" cy="974.5391" fill="transparent" rx="3" ry="3" style="stroke:#038048;stroke-width:1;"/><text fill="#000000" font-family="sans-serif" font-size="14" lengthAdjust="spacing" textLength="102.5596" x="551.68" y="977.8857">stock: Number</text><ellipse cx="542.68" cy="990.8359" fill="transparent" rx="3" ry="3" style="stroke:#038048;stroke-width:1;"/><text fill="#000000" font-family="sans-serif" font-size="14" lengthAdjust="spacing" textLength="112.8203" x="551.68" y="994.1826">category: String</text><ellipse cx="542.68" cy="1007.1328" fill="transparent" rx="3" ry="3" style="stroke:#038048;stroke-width:1;"/><text fill="#000000" font-family="sans-serif" font-size="14" lengthAdjust="spacing" textLength="111.3301" x="551.68" y="1010.4795">createdAt: Date</text><line style="stroke:#181818;stroke-width:0.5;" x1="532.68" x2="685.4691" y1="1017.7813" y2="1017.7813"/></g><!--class Invoice--><g id="elem_Invoice"><rect codeLine="22" fill="#F1F1F1" height="145.7813" id="Invoice" rx="2.5" ry="2.5" style="stroke:#181818;stroke-width:0.5;" width="484.2061" x="139.18" y="657"/><ellipse cx="352.0067" cy="673" fill="#ADD1B2" rx="11" ry="11" style="stroke:#181818;stroke-width:1;"/><path d="M354.9754,678.6406 Q354.3973,678.9375 353.7567,679.0781 Q353.116,679.2344 352.4129,679.2344 Q349.9129,679.2344 348.5848,677.5938 Q347.2723,675.9375 347.2723,672.8125 Q347.2723,669.6875 348.5848,668.0313 Q349.9129,666.375 352.4129,666.375 Q353.116,666.375 353.7567,666.5313 Q354.4129,666.6875 354.9754,666.9844 L354.9754,669.7031 Q354.3504,669.125 353.7567,668.8594 Q353.1629,668.5781 352.5379,668.5781 Q351.1942,668.5781 350.5067,669.6563 Q349.8192,670.7188 349.8192,672.8125 Q349.8192,674.9063 350.5067,675.9844 Q351.1942,677.0469 352.5379,677.0469 Q353.1629,677.0469 353.7567,676.7813 Q354.3504,676.5 354.9754,675.9219 L354.9754,678.6406 Z " fill="#000000"/><text fill="#000000" font-family="sans-serif" font-size="14" lengthAdjust="spacing" textLength="50.0527" x="372.5067" y="677.8467">Invoice</text><line style="stroke:#181818;stroke-width:0.5;" x1="140.18" x2="622.3861" y1="689" y2="689"/><ellipse cx="150.18" cy="702.6484" fill="transparent" rx="3" ry="3" style="stroke:#038048;stroke-width:1;"/><text fill="#000000" font-family="sans-serif" font-size="14" lengthAdjust="spacing" textLength="71.6133" x="159.18" y="705.9951">user: User</text><ellipse cx="150.18" cy="718.9453" fill="transparent" rx="3" ry="3" style="stroke:#038048;stroke-width:1;"/><text fill="#000000" font-family="sans-serif" font-size="14" lengthAdjust="spacing" textLength="458.2061" x="159.18" y="722.292">products: [{product: Product, quantity: Number, price: Number}]</text><ellipse cx="150.18" cy="735.2422" fill="transparent" rx="3" ry="3" style="stroke:#038048;stroke-width:1;"/><text fill="#000000" font-family="sans-serif" font-size="14" lengthAdjust="spacing" textLength="152.4346" x="159.18" y="738.5889">totalAmount: Number</text><ellipse cx="150.18" cy="751.5391" fill="transparent" rx="3" ry="3" style="stroke:#038048;stroke-width:1;"/><text fill="#000000" font-family="sans-serif" font-size="14" lengthAdjust="spacing" textLength="93.9668" x="159.18" y="754.8857">status: String</text><ellipse cx="150.18" cy="767.8359" fill="transparent" rx="3" ry="3" style="stroke:#038048;stroke-width:1;"/><text fill="#000000" font-family="sans-serif" font-size="14" lengthAdjust="spacing" textLength="165.8193" x="159.18" y="771.1826">paymentMethod: String</text><ellipse cx="150.18" cy="784.1328" fill="transparent" rx="3" ry="3" style="stroke:#038048;stroke-width:1;"/><text fill="#000000" font-family="sans-serif" font-size="14" lengthAdjust="spacing" textLength="111.3301" x="159.18" y="787.4795">createdAt: Date</text><line style="stroke:#181818;stroke-width:0.5;" x1="140.18" x2="622.3861" y1="794.7813" y2="794.7813"/></g><!--class UserController--><g id="elem_UserController"><rect codeLine="33" fill="#F1F1F1" height="96.8906" id="UserController" rx="2.5" ry="2.5" style="stroke:#181818;stroke-width:0.5;" width="133.083" x="437.68" y="197"/><ellipse cx="452.68" cy="213" fill="#ADD1B2" rx="11" ry="11" style="stroke:#181818;stroke-width:1;"/><path d="M455.6488,218.6406 Q455.0706,218.9375 454.43,219.0781 Q453.7894,219.2344 453.0863,219.2344 Q450.5863,219.2344 449.2581,217.5938 Q447.9456,215.9375 447.9456,212.8125 Q447.9456,209.6875 449.2581,208.0313 Q450.5863,206.375 453.0863,206.375 Q453.7894,206.375 454.43,206.5313 Q455.0863,206.6875 455.6488,206.9844 L455.6488,209.7031 Q455.0238,209.125 454.43,208.8594 Q453.8363,208.5781 453.2113,208.5781 Q451.8675,208.5781 451.18,209.6563 Q450.4925,210.7188 450.4925,212.8125 Q450.4925,214.9063 451.18,215.9844 Q451.8675,217.0469 453.2113,217.0469 Q453.8363,217.0469 454.43,216.7813 Q455.0238,216.5 455.6488,215.9219 L455.6488,218.6406 Z " fill="#000000"/><text fill="#000000" font-family="sans-serif" font-size="14" lengthAdjust="spacing" textLength="101.083" x="466.68" y="217.8467">UserController</text><line style="stroke:#181818;stroke-width:0.5;" x1="438.68" x2="569.763" y1="229" y2="229"/><line style="stroke:#181818;stroke-width:0.5;" x1="438.68" x2="569.763" y1="237" y2="237"/><ellipse cx="448.68" cy="250.6484" fill="#84BE84" rx="3" ry="3" style="stroke:#038048;stroke-width:1;"/><text fill="#000000" font-family="sans-serif" font-size="14" lengthAdjust="spacing" textLength="91.1299" x="457.68" y="253.9951">userSignUp()</text><ellipse cx="448.68" cy="266.9453" fill="#84BE84" rx="3" ry="3" style="stroke:#038048;stroke-width:1;"/><text fill="#000000" font-family="sans-serif" font-size="14" lengthAdjust="spacing" textLength="87.582" x="457.68" y="270.292">createUser()</text><ellipse cx="448.68" cy="283.2422" fill="#84BE84" rx="3" ry="3" style="stroke:#038048;stroke-width:1;"/><text fill="#000000" font-family="sans-serif" font-size="14" lengthAdjust="spacing" textLength="79.4746" x="457.68" y="286.5889">userLogin()</text></g><!--class ProductController--><g id="elem_ProductController"><rect codeLine="39" fill="#F1F1F1" height="96.8906" id="ProductController" rx="2.5" ry="2.5" style="stroke:#181818;stroke-width:0.5;" width="154.8828" x="31.68" y="197"/><ellipse cx="46.68" cy="213" fill="#ADD1B2" rx="11" ry="11" style="stroke:#181818;stroke-width:1;"/><path d="M49.6488,218.6406 Q49.0706,218.9375 48.43,219.0781 Q47.7894,219.2344 47.0863,219.2344 Q44.5863,219.2344 43.2581,217.5938 Q41.9456,215.9375 41.9456,212.8125 Q41.9456,209.6875 43.2581,208.0313 Q44.5863,206.375 47.0863,206.375 Q47.7894,206.375 48.43,206.5313 Q49.0863,206.6875 49.6488,206.9844 L49.6488,209.7031 Q49.0238,209.125 48.43,208.8594 Q47.8363,208.5781 47.2113,208.5781 Q45.8675,208.5781 45.18,209.6563 Q44.4925,210.7188 44.4925,212.8125 Q44.4925,214.9063 45.18,215.9844 Q45.8675,217.0469 47.2113,217.0469 Q47.8363,217.0469 48.43,216.7813 Q49.0238,216.5 49.6488,215.9219 L49.6488,218.6406 Z " fill="#000000"/><text fill="#000000" font-family="sans-serif" font-size="14" lengthAdjust="spacing" textLength="122.8828" x="60.68" y="217.8467">ProductController</text><line style="stroke:#181818;stroke-width:0.5;" x1="32.68" x2="185.5628" y1="229" y2="229"/><line style="stroke:#181818;stroke-width:0.5;" x1="32.68" x2="185.5628" y1="237" y2="237"/><ellipse cx="42.68" cy="250.6484" fill="#84BE84" rx="3" ry="3" style="stroke:#038048;stroke-width:1;"/><text fill="#000000" font-family="sans-serif" font-size="14" lengthAdjust="spacing" textLength="109.3818" x="51.68" y="253.9951">createProduct()</text><ellipse cx="42.68" cy="266.9453" fill="#84BE84" rx="3" ry="3" style="stroke:#038048;stroke-width:1;"/><text fill="#000000" font-family="sans-serif" font-size="14" lengthAdjust="spacing" textLength="94.917" x="51.68" y="270.292">getProducts()</text><ellipse cx="42.68" cy="283.2422" fill="#84BE84" rx="3" ry="3" style="stroke:#038048;stroke-width:1;"/><text fill="#000000" font-family="sans-serif" font-size="14" lengthAdjust="spacing" textLength="118.5283" x="51.68" y="286.5889">getProductById()</text></g><!--class InvoiceController--><g id="elem_InvoiceController"><rect codeLine="45" fill="#F1F1F1" height="113.1875" id="InvoiceController" rx="2.5" ry="2.5" style="stroke:#181818;stroke-width:0.5;" width="180.916" x="221.68" y="189"/><ellipse cx="250.0407" cy="205" fill="#ADD1B2" rx="11" ry="11" style="stroke:#181818;stroke-width:1;"/><path d="M253.0094,210.6406 Q252.4313,210.9375 251.7907,211.0781 Q251.1501,211.2344 250.4469,211.2344 Q247.9469,211.2344 246.6188,209.5938 Q245.3063,207.9375 245.3063,204.8125 Q245.3063,201.6875 246.6188,200.0313 Q247.9469,198.375 250.4469,198.375 Q251.1501,198.375 251.7907,198.5313 Q252.4469,198.6875 253.0094,198.9844 L253.0094,201.7031 Q252.3844,201.125 251.7907,200.8594 Q251.1969,200.5781 250.5719,200.5781 Q249.2282,200.5781 248.5407,201.6563 Q247.8532,202.7188 247.8532,204.8125 Q247.8532,206.9063 248.5407,207.9844 Q249.2282,209.0469 250.5719,209.0469 Q251.1969,209.0469 251.7907,208.7813 Q252.3844,208.5 253.0094,207.9219 L253.0094,210.6406 Z " fill="#000000"/><text fill="#000000" font-family="sans-serif" font-size="14" lengthAdjust="spacing" textLength="119.2256" x="267.0097" y="209.8467">InvoiceController</text><line style="stroke:#181818;stroke-width:0.5;" x1="222.68" x2="401.596" y1="221" y2="221"/><line style="stroke:#181818;stroke-width:0.5;" x1="222.68" x2="401.596" y1="229" y2="229"/><ellipse cx="232.68" cy="242.6484" fill="#84BE84" rx="3" ry="3" style="stroke:#038048;stroke-width:1;"/><text fill="#000000" font-family="sans-serif" font-size="14" lengthAdjust="spacing" textLength="105.7246" x="241.68" y="245.9951">createInvoice()</text><ellipse cx="232.68" cy="258.9453" fill="#84BE84" rx="3" ry="3" style="stroke:#038048;stroke-width:1;"/><text fill="#000000" font-family="sans-serif" font-size="14" lengthAdjust="spacing" textLength="91.2598" x="241.68" y="262.292">getInvoices()</text><ellipse cx="232.68" cy="275.2422" fill="#84BE84" rx="3" ry="3" style="stroke:#038048;stroke-width:1;"/><text fill="#000000" font-family="sans-serif" font-size="14" lengthAdjust="spacing" textLength="114.8711" x="241.68" y="278.5889">getInvoiceById()</text><ellipse cx="232.68" cy="291.5391" fill="#84BE84" rx="3" ry="3" style="stroke:#038048;stroke-width:1;"/><text fill="#000000" font-family="sans-serif" font-size="14" lengthAdjust="spacing" textLength="154.916" x="241.68" y="294.8857">updateInvoiceStatus()</text></g><!--class Auth--><g id="elem_Auth"><rect codeLine="54" fill="#F1F1F1" height="64.2969" id="Auth" rx="2.5" ry="2.5" style="stroke:#181818;stroke-width:0.5;" width="68.7383" x="815.68" y="213.5"/><ellipse cx="832.4466" cy="229.5" fill="#ADD1B2" rx="11" ry="11" style="stroke:#181818;stroke-width:1;"/><path d="M835.4154,235.1406 Q834.8372,235.4375 834.1966,235.5781 Q833.556,235.7344 832.8529,235.7344 Q830.3529,235.7344 829.0247,234.0938 Q827.7122,232.4375 827.7122,229.3125 Q827.7122,226.1875 829.0247,224.5313 Q830.3529,222.875 832.8529,222.875 Q833.556,222.875 834.1966,223.0313 Q834.8529,223.1875 835.4154,223.4844 L835.4154,226.2031 Q834.7904,225.625 834.1966,225.3594 Q833.6029,225.0781 832.9779,225.0781 Q831.6341,225.0781 830.9466,226.1563 Q830.2591,227.2188 830.2591,229.3125 Q830.2591,231.4063 830.9466,232.4844 Q831.6341,233.5469 832.9779,233.5469 Q833.6029,233.5469 834.1966,233.2813 Q834.7904,233 835.4154,232.4219 L835.4154,235.1406 Z " fill="#000000"/><text fill="#000000" font-family="sans-serif" font-size="14" lengthAdjust="spacing" textLength="32.8125" x="846.8392" y="234.3467">Auth</text><line style="stroke:#181818;stroke-width:0.5;" x1="816.68" x2="883.4183" y1="245.5" y2="245.5"/><line style="stroke:#181818;stroke-width:0.5;" x1="816.68" x2="883.4183" y1="253.5" y2="253.5"/><ellipse cx="826.68" cy="267.1484" fill="#84BE84" rx="3" ry="3" style="stroke:#038048;stroke-width:1;"/><text fill="#000000" font-family="sans-serif" font-size="14" lengthAdjust="spacing" textLength="42.7383" x="835.68" y="270.4951">auth()</text></g><!--class PasswordEncrypt--><g id="elem_PasswordEncrypt"><rect codeLine="58" fill="#F1F1F1" height="64.2969" id="PasswordEncrypt" rx="2.5" ry="2.5" style="stroke:#181818;stroke-width:0.5;" width="152.1006" x="1286.18" y="213.5"/><ellipse cx="1301.18" cy="229.5" fill="#ADD1B2" rx="11" ry="11" style="stroke:#181818;stroke-width:1;"/><path d="M1304.1488,235.1406 Q1303.5706,235.4375 1302.93,235.5781 Q1302.2894,235.7344 1301.5863,235.7344 Q1299.0863,235.7344 1297.7581,234.0938 Q1296.4456,232.4375 1296.4456,229.3125 Q1296.4456,226.1875 1297.7581,224.5313 Q1299.0863,222.875 1301.5863,222.875 Q1302.2894,222.875 1302.93,223.0313 Q1303.5863,223.1875 1304.1488,223.4844 L1304.1488,226.2031 Q1303.5238,225.625 1302.93,225.3594 Q1302.3363,225.0781 1301.7113,225.0781 Q1300.3675,225.0781 1299.68,226.1563 Q1298.9925,227.2188 1298.9925,229.3125 Q1298.9925,231.4063 1299.68,232.4844 Q1300.3675,233.5469 1301.7113,233.5469 Q1302.3363,233.5469 1302.93,233.2813 Q1303.5238,233 1304.1488,232.4219 L1304.1488,235.1406 Z " fill="#000000"/><text fill="#000000" font-family="sans-serif" font-size="14" lengthAdjust="spacing" textLength="120.1006" x="1315.18" y="234.3467">PasswordEncrypt</text><line style="stroke:#181818;stroke-width:0.5;" x1="1287.18" x2="1437.2806" y1="245.5" y2="245.5"/><line style="stroke:#181818;stroke-width:0.5;" x1="1287.18" x2="1437.2806" y1="253.5" y2="253.5"/><ellipse cx="1297.18" cy="267.1484" fill="#84BE84" rx="3" ry="3" style="stroke:#038048;stroke-width:1;"/><text fill="#000000" font-family="sans-serif" font-size="14" lengthAdjust="spacing" textLength="110.8105" x="1306.18" y="270.4951">hashPassword()</text></g><!--class RequestLogger--><g id="elem_RequestLogger"><rect codeLine="62" fill="#F1F1F1" height="64.2969" id="RequestLogger" rx="2.5" ry="2.5" style="stroke:#181818;stroke-width:0.5;" width="138.957" x="1111.68" y="213.5"/><ellipse cx="1127.1085" cy="229.5" fill="#ADD1B2" rx="11" ry="11" style="stroke:#181818;stroke-width:1;"/><path d="M1130.0772,235.1406 Q1129.4991,235.4375 1128.8585,235.5781 Q1128.2178,235.7344 1127.5147,235.7344 Q1125.0147,235.7344 1123.6866,234.0938 Q1122.3741,232.4375 1122.3741,229.3125 Q1122.3741,226.1875 1123.6866,224.5313 Q1125.0147,222.875 1127.5147,222.875 Q1128.2178,222.875 1128.8585,223.0313 Q1129.5147,223.1875 1130.0772,223.4844 L1130.0772,226.2031 Q1129.4522,225.625 1128.8585,225.3594 Q1128.2647,225.0781 1127.6397,225.0781 Q1126.296,225.0781 1125.6085,226.1563 Q1124.921,227.2188 1124.921,229.3125 Q1124.921,231.4063 1125.6085,232.4844 Q1126.296,233.5469 1127.6397,233.5469 Q1128.2647,233.5469 1128.8585,233.2813 Q1129.4522,233 1130.0772,232.4219 L1130.0772,235.1406 Z " fill="#000000"/><text fill="#000000" font-family="sans-serif" font-size="14" lengthAdjust="spacing" textLength="106.0049" x="1141.2037" y="234.3467">RequestLogger</text><line style="stroke:#181818;stroke-width:0.5;" x1="1112.68" x2="1249.637" y1="245.5" y2="245.5"/><line style="stroke:#181818;stroke-width:0.5;" x1="1112.68" x2="1249.637" y1="253.5" y2="253.5"/><ellipse cx="1122.68" cy="267.1484" fill="#84BE84" rx="3" ry="3" style="stroke:#038048;stroke-width:1;"/><text fill="#000000" font-family="sans-serif" font-size="14" lengthAdjust="spacing" textLength="112.957" x="1131.68" y="270.4951">requestLogger()</text></g><!--class MulterConfig--><g id="elem_MulterConfig"><rect codeLine="66" fill="#F1F1F1" height="80.5938" id="MulterConfig" rx="2.5" ry="2.5" style="stroke:#181818;stroke-width:0.5;" width="121.6191" x="1473.18" y="205"/><ellipse cx="1488.18" cy="221" fill="#ADD1B2" rx="11" ry="11" style="stroke:#181818;stroke-width:1;"/><path d="M1491.1488,226.6406 Q1490.5706,226.9375 1489.93,227.0781 Q1489.2894,227.2344 1488.5863,227.2344 Q1486.0863,227.2344 1484.7581,225.5938 Q1483.4456,223.9375 1483.4456,220.8125 Q1483.4456,217.6875 1484.7581,216.0313 Q1486.0863,214.375 1488.5863,214.375 Q1489.2894,214.375 1489.93,214.5313 Q1490.5863,214.6875 1491.1488,214.9844 L1491.1488,217.7031 Q1490.5238,217.125 1489.93,216.8594 Q1489.3363,216.5781 1488.7113,216.5781 Q1487.3675,216.5781 1486.68,217.6563 Q1485.9925,218.7188 1485.9925,220.8125 Q1485.9925,222.9063 1486.68,223.9844 Q1487.3675,225.0469 1488.7113,225.0469 Q1489.3363,225.0469 1489.93,224.7813 Q1490.5238,224.5 1491.1488,223.9219 L1491.1488,226.6406 Z " fill="#000000"/><text fill="#000000" font-family="sans-serif" font-size="14" lengthAdjust="spacing" textLength="89.6191" x="1502.18" y="225.8467">MulterConfig</text><line style="stroke:#181818;stroke-width:0.5;" x1="1474.18" x2="1593.7991" y1="237" y2="237"/><ellipse cx="1484.18" cy="250.6484" fill="transparent" rx="3" ry="3" style="stroke:#038048;stroke-width:1;"/><text fill="#000000" font-family="sans-serif" font-size="14" lengthAdjust="spacing" textLength="53.1836" x="1493.18" y="253.9951">storage</text><ellipse cx="1484.18" cy="266.9453" fill="transparent" rx="3" ry="3" style="stroke:#038048;stroke-width:1;"/><text fill="#000000" font-family="sans-serif" font-size="14" lengthAdjust="spacing" textLength="47.6807" x="1493.18" y="270.292">upload</text><line style="stroke:#181818;stroke-width:0.5;" x1="1474.18" x2="1593.7991" y1="277.5938" y2="277.5938"/></g><!--class SharpMiddleware--><g id="elem_SharpMiddleware"><rect codeLine="71" fill="#F1F1F1" height="64.2969" id="SharpMiddleware" rx="2.5" ry="2.5" style="stroke:#181818;stroke-width:0.5;" width="156.9561" x="919.68" y="213.5"/><ellipse cx="936.179" cy="229.5" fill="#ADD1B2" rx="11" ry="11" style="stroke:#181818;stroke-width:1;"/><path d="M939.1477,235.1406 Q938.5696,235.4375 937.929,235.5781 Q937.2883,235.7344 936.5852,235.7344 Q934.0852,235.7344 932.7571,234.0938 Q931.4446,232.4375 931.4446,229.3125 Q931.4446,226.1875 932.7571,224.5313 Q934.0852,222.875 936.5852,222.875 Q937.2883,222.875 937.929,223.0313 Q938.5852,223.1875 939.1477,223.4844 L939.1477,226.2031 Q938.5227,225.625 937.929,225.3594 Q937.3352,225.0781 936.7102,225.0781 Q935.3665,225.0781 934.679,226.1563 Q933.9915,227.2188 933.9915,229.3125 Q933.9915,231.4063 934.679,232.4844 Q935.3665,233.5469 936.7102,233.5469 Q937.3352,233.5469 937.929,233.2813 Q938.5227,233 939.1477,232.4219 L939.1477,235.1406 Z " fill="#000000"/><text fill="#000000" font-family="sans-serif" font-size="14" lengthAdjust="spacing" textLength="121.625" x="950.5121" y="234.3467">SharpMiddleware</text><line style="stroke:#181818;stroke-width:0.5;" x1="920.68" x2="1075.6361" y1="245.5" y2="245.5"/><line style="stroke:#181818;stroke-width:0.5;" x1="920.68" x2="1075.6361" y1="253.5" y2="253.5"/><ellipse cx="930.68" cy="267.1484" fill="#84BE84" rx="3" ry="3" style="stroke:#038048;stroke-width:1;"/><text fill="#000000" font-family="sans-serif" font-size="14" lengthAdjust="spacing" textLength="130.9561" x="939.68" y="270.4951">sharpMiddleware()</text></g><!--class UserRoutes--><g id="elem_UserRoutes"><rect codeLine="77" fill="#F1F1F1" height="48" id="UserRoutes" rx="2.5" ry="2.5" style="stroke:#181818;stroke-width:0.5;" width="112.4727" x="847.18" y="41"/><ellipse cx="862.18" cy="57" fill="#ADD1B2" rx="11" ry="11" style="stroke:#181818;stroke-width:1;"/><path d="M865.1488,62.6406 Q864.5706,62.9375 863.93,63.0781 Q863.2894,63.2344 862.5863,63.2344 Q860.0863,63.2344 858.7581,61.5938 Q857.4456,59.9375 857.4456,56.8125 Q857.4456,53.6875 858.7581,52.0313 Q860.0863,50.375 862.5863,50.375 Q863.2894,50.375 863.93,50.5313 Q864.5863,50.6875 865.1488,50.9844 L865.1488,53.7031 Q864.5238,53.125 863.93,52.8594 Q863.3363,52.5781 862.7113,52.5781 Q861.3675,52.5781 860.68,53.6563 Q859.9925,54.7188 859.9925,56.8125 Q859.9925,58.9063 860.68,59.9844 Q861.3675,61.0469 862.7113,61.0469 Q863.3363,61.0469 863.93,60.7813 Q864.5238,60.5 865.1488,59.9219 L865.1488,62.6406 Z " fill="#000000"/><text fill="#000000" font-family="sans-serif" font-size="14" lengthAdjust="spacing" textLength="80.4727" x="876.18" y="61.8467">UserRoutes</text><line style="stroke:#181818;stroke-width:0.5;" x1="848.18" x2="958.6527" y1="73" y2="73"/><line style="stroke:#181818;stroke-width:0.5;" x1="848.18" x2="958.6527" y1="81" y2="81"/></g><!--class ProductRoutes--><g id="elem_ProductRoutes"><rect codeLine="80" fill="#F1F1F1" height="48" id="ProductRoutes" rx="2.5" ry="2.5" style="stroke:#181818;stroke-width:0.5;" width="134.2725" x="511.18" y="41"/><ellipse cx="526.18" cy="57" fill="#ADD1B2" rx="11" ry="11" style="stroke:#181818;stroke-width:1;"/><path d="M529.1488,62.6406 Q528.5706,62.9375 527.93,63.0781 Q527.2894,63.2344 526.5863,63.2344 Q524.0863,63.2344 522.7581,61.5938 Q521.4456,59.9375 521.4456,56.8125 Q521.4456,53.6875 522.7581,52.0313 Q524.0863,50.375 526.5863,50.375 Q527.2894,50.375 527.93,50.5313 Q528.5863,50.6875 529.1488,50.9844 L529.1488,53.7031 Q528.5238,53.125 527.93,52.8594 Q527.3363,52.5781 526.7113,52.5781 Q525.3675,52.5781 524.68,53.6563 Q523.9925,54.7188 523.9925,56.8125 Q523.9925,58.9063 524.68,59.9844 Q525.3675,61.0469 526.7113,61.0469 Q527.3363,61.0469 527.93,60.7813 Q528.5238,60.5 529.1488,59.9219 L529.1488,62.6406 Z " fill="#000000"/><text fill="#000000" font-family="sans-serif" font-size="14" lengthAdjust="spacing" textLength="102.2725" x="540.18" y="61.8467">ProductRoutes</text><line style="stroke:#181818;stroke-width:0.5;" x1="512.18" x2="644.4525" y1="73" y2="73"/><line style="stroke:#181818;stroke-width:0.5;" x1="512.18" x2="644.4525" y1="81" y2="81"/></g><!--class InvoiceRoutes--><g id="elem_InvoiceRoutes"><rect codeLine="83" fill="#F1F1F1" height="48" id="InvoiceRoutes" rx="2.5" ry="2.5" style="stroke:#181818;stroke-width:0.5;" width="130.6152" x="680.68" y="41"/><ellipse cx="695.68" cy="57" fill="#ADD1B2" rx="11" ry="11" style="stroke:#181818;stroke-width:1;"/><path d="M698.6488,62.6406 Q698.0706,62.9375 697.43,63.0781 Q696.7894,63.2344 696.0863,63.2344 Q693.5863,63.2344 692.2581,61.5938 Q690.9456,59.9375 690.9456,56.8125 Q690.9456,53.6875 692.2581,52.0313 Q693.5863,50.375 696.0863,50.375 Q696.7894,50.375 697.43,50.5313 Q698.0863,50.6875 698.6488,50.9844 L698.6488,53.7031 Q698.0238,53.125 697.43,52.8594 Q696.8363,52.5781 696.2113,52.5781 Q694.8675,52.5781 694.18,53.6563 Q693.4925,54.7188 693.4925,56.8125 Q693.4925,58.9063 694.18,59.9844 Q694.8675,61.0469 696.2113,61.0469 Q696.8363,61.0469 697.43,60.7813 Q698.0238,60.5 698.6488,59.9219 L698.6488,62.6406 Z " fill="#000000"/><text fill="#000000" font-family="sans-serif" font-size="14" lengthAdjust="spacing" textLength="98.6152" x="709.68" y="61.8467">InvoiceRoutes</text><line style="stroke:#181818;stroke-width:0.5;" x1="681.68" x2="810.2952" y1="73" y2="73"/><line style="stroke:#181818;stroke-width:0.5;" x1="681.68" x2="810.2952" y1="81" y2="81"/></g><!--class DBConnection--><g id="elem_DBConnection"><rect codeLine="88" fill="#F1F1F1" height="64.2969" id="DBConnection" rx="2.5" ry="2.5" style="stroke:#181818;stroke-width:0.5;" width="131.5996" x="627.18" y="213.5"/><ellipse cx="642.18" cy="229.5" fill="#ADD1B2" rx="11" ry="11" style="stroke:#181818;stroke-width:1;"/><path d="M645.1488,235.1406 Q644.5706,235.4375 643.93,235.5781 Q643.2894,235.7344 642.5863,235.7344 Q640.0863,235.7344 638.7581,234.0938 Q637.4456,232.4375 637.4456,229.3125 Q637.4456,226.1875 638.7581,224.5313 Q640.0863,222.875 642.5863,222.875 Q643.2894,222.875 643.93,223.0313 Q644.5863,223.1875 645.1488,223.4844 L645.1488,226.2031 Q644.5238,225.625 643.93,225.3594 Q643.3363,225.0781 642.7113,225.0781 Q641.3675,225.0781 640.68,226.1563 Q639.9925,227.2188 639.9925,229.3125 Q639.9925,231.4063 640.68,232.4844 Q641.3675,233.5469 642.7113,233.5469 Q643.3363,233.5469 643.93,233.2813 Q644.5238,233 645.1488,232.4219 L645.1488,235.1406 Z " fill="#000000"/><text fill="#000000" font-family="sans-serif" font-size="14" lengthAdjust="spacing" textLength="99.5996" x="656.18" y="234.3467">DBConnection</text><line style="stroke:#181818;stroke-width:0.5;" x1="628.18" x2="757.7796" y1="245.5" y2="245.5"/><line style="stroke:#181818;stroke-width:0.5;" x1="628.18" x2="757.7796" y1="253.5" y2="253.5"/><ellipse cx="638.18" cy="267.1484" fill="#84BE84" rx="3" ry="3" style="stroke:#038048;stroke-width:1;"/><text fill="#000000" font-family="sans-serif" font-size="14" lengthAdjust="spacing" textLength="87.1172" x="647.18" y="270.4951">connectDB()</text></g><!--link User to Product--><g id="link_User_Product"><path codeLine="94" d="M587.21,569.56 C609.04,595.07 629.67,625.13 641.18,657 C667.46,729.8 651.87,818.77 634.51,879.84 " fill="transparent" id="User-Product" style="stroke:#181818;stroke-width:1;"/><polygon fill="#000000" points="660.9335,735.0093,662.4758,725.6246,656.665,726.5104,660.9335,735.0093" style="stroke:#000000;stroke-width:1;"/><text fill="#000000" font-family="sans-serif" font-size="13" lengthAdjust="spacing" textLength="55.0278" x="669.18" y="734.5669">contains</text><text fill="#000000" font-family="sans-serif" font-size="13" lengthAdjust="spacing" textLength="8.271" x="595.4974" y="573.3883">1</text><text fill="#000000" font-family="sans-serif" font-size="13" lengthAdjust="spacing" textLength="36.5625" x="599.2696" y="868.9842">many</text></g><!--link User to Invoice--><g id="link_User_Invoice"><path codeLine="95" d="M421.04,568.88 C410.92,581.7 401.83,595.56 395.18,610 C388.53,624.46 384.6,640.9 382.36,656.85 " fill="transparent" id="User-Invoice" style="stroke:#181818;stroke-width:1;"/><polygon fill="#000000" points="398.1675,623.1435,404.4985,616.0464,399.1178,613.6805,398.1675,623.1435" style="stroke:#000000;stroke-width:1;"/><text fill="#000000" font-family="sans-serif" font-size="13" lengthAdjust="spacing" textLength="48.3247" x="409.18" y="623.0669">creates</text><text fill="#000000" font-family="sans-serif" font-size="13" lengthAdjust="spacing" textLength="8.271" x="404.9994" y="572.4239">1</text><text fill="#000000" font-family="sans-serif" font-size="13" lengthAdjust="spacing" textLength="36.5625" x="344.7218" y="645.9952">many</text></g><!--link Invoice to User--><g id="link_Invoice_User"><path codeLine="96" d="M443.65,656.86 C450.46,647.18 456.84,637.1 462.18,627 C469.87,612.46 476.41,596.29 481.87,580.33 " fill="transparent" id="Invoice-User" style="stroke:#181818;stroke-width:1;"/><polygon fill="#000000" points="475.414,614.0932,468.7434,620.8722,474.002,623.4984,475.414,614.0932" style="stroke:#000000;stroke-width:1;"/><text fill="#000000" font-family="sans-serif" font-size="13" lengthAdjust="spacing" textLength="68.2627" x="482.18" y="623.0669">belongs to</text><text fill="#000000" font-family="sans-serif" font-size="13" lengthAdjust="spacing" textLength="36.5625" x="412.0451" y="646.0062">many</text><text fill="#000000" font-family="sans-serif" font-size="13" lengthAdjust="spacing" textLength="8.271" x="471.6846" y="600.4056">1</text></g><!--link Invoice to Product--><g id="link_Invoice_Product"><path codeLine="97" d="M455.52,803.06 C480.86,827.62 509.19,855.08 534.55,879.66 " fill="transparent" id="Invoice-Product" style="stroke:#181818;stroke-width:1;"/><polygon fill="#000000" points="509.7703,845.0463,505.3208,836.6408,501.2299,840.8614,509.7703,845.0463" style="stroke:#000000;stroke-width:1;"/><text fill="#000000" font-family="sans-serif" font-size="13" lengthAdjust="spacing" textLength="55.0278" x="515.18" y="846.0669">contains</text><text fill="#000000" font-family="sans-serif" font-size="13" lengthAdjust="spacing" textLength="36.5625" x="424.9069" y="822.822">many</text><text fill="#000000" font-family="sans-serif" font-size="13" lengthAdjust="spacing" textLength="36.5625" x="489.7581" y="869.0386">many</text></g><!--link UserController to User--><g id="link_UserController_User"><path codeLine="99" d="M502.25,294.18 C501.81,307.1 501.4,321.08 501.18,334 C500.8,355.94 500.8642,373.6109 501.2542,395.7309 " fill="transparent" id="UserController-to-User" style="stroke:#181818;stroke-width:1;"/><polygon fill="#181818" points="501.36,401.73,505.2007,392.6609,501.2719,396.7308,497.202,392.8019,501.36,401.73" style="stroke:#181818;stroke-width:1;"/><polygon fill="#000000" points="506.131,347.5662,509.1584,338.5503,503.2809,338.4927,506.131,347.5662" style="stroke:#000000;stroke-width:1;"/><text fill="#000000" font-family="sans-serif" font-size="13" lengthAdjust="spacing" textLength="59.8584" x="515.18" y="347.0669">manages</text></g><!--link ProductController to Product--><g id="link_ProductController_Product"><path codeLine="100" d="M93.55,294.19 C62.59,398.48 6,649.74 122.18,803 C171.92,868.62 401.1503,916.5828 525.5903,938.4228 " fill="transparent" id="ProductController-to-Product" style="stroke:#181818;stroke-width:1;"/><polygon fill="#181818" points="531.5,939.46,523.3269,933.9644,526.5753,938.5957,521.944,941.844,531.5,939.46" style="stroke:#181818;stroke-width:1;"/><polygon fill="#000000" points="62.9649,622.7191,60.3678,613.5699,55.4861,616.8438,62.9649,622.7191" style="stroke:#000000;stroke-width:1;"/><text fill="#000000" font-family="sans-serif" font-size="13" lengthAdjust="spacing" textLength="59.8584" x="69.18" y="623.0669">manages</text></g><!--link InvoiceController to Invoice--><g id="link_InvoiceController_Invoice"><path codeLine="101" d="M310.53,302.25 C309.63,368.94 311.47,483.66 330.18,580 C335.16,605.63 341.5166,627.2244 350.0466,651.3044 " fill="transparent" id="InvoiceController-to-Invoice" style="stroke:#181818;stroke-width:1;"/><polygon fill="#181818" points="352.05,656.96,352.8153,647.1409,350.3805,652.247,345.2744,649.8122,352.05,656.96" style="stroke:#181818;stroke-width:1;"/><polygon fill="#000000" points="335.7425,496.0347,337.6452,486.7164,331.8047,487.3776,335.7425,496.0347" style="stroke:#000000;stroke-width:1;"/><text fill="#000000" font-family="sans-serif" font-size="13" lengthAdjust="spacing" textLength="59.8584" x="344.18" y="495.5669">manages</text></g><!--link UserRoutes to UserController--><g id="link_UserRoutes_UserController"><path codeLine="103" d="M876.29,89.14 C854.81,106.09 823.12,127.84 791.18,138 C753.02,150.13 648.15,130.62 611.18,146 C584.84,156.96 565.0375,173.0947 546.5175,192.5447 " fill="transparent" id="UserRoutes-to-UserController" style="stroke:#181818;stroke-width:1;"/><polygon fill="#181818" points="542.38,196.89,551.4831,193.1304,545.8279,193.269,545.6894,187.6138,542.38,196.89" style="stroke:#181818;stroke-width:1;"/><polygon fill="#000000" points="827.409,131.0624,836.9191,131.1604,835.1605,125.5518,827.409,131.0624" style="stroke:#000000;stroke-width:1;"/><text fill="#000000" font-family="sans-serif" font-size="13" lengthAdjust="spacing" textLength="29.7832" x="841.18" y="134.0669">uses</text></g><!--link ProductRoutes to ProductController--><g id="link_ProductRoutes_ProductController"><path codeLine="104" d="M510.9,68.63 C432.68,74.25 301.84,91.74 204.18,146 C181.54,158.58 164.9074,173.7814 148.7374,192.2914 " fill="transparent" id="ProductRoutes-to-ProductController" style="stroke:#181818;stroke-width:1;"/><polygon fill="#181818" points="144.79,196.81,153.7235,192.6636,148.0795,193.0445,147.6987,187.4005,144.79,196.81" style="stroke:#181818;stroke-width:1;"/><polygon fill="#000000" points="250.4482,131.1821,259.9577,131.0406,258.0584,125.478,250.4482,131.1821" style="stroke:#000000;stroke-width:1;"/><text fill="#000000" font-family="sans-serif" font-size="13" lengthAdjust="spacing" textLength="29.7832" x="264.18" y="134.0669">uses</text></g><!--link InvoiceRoutes to InvoiceController--><g id="link_InvoiceRoutes_InvoiceController"><path codeLine="105" d="M716.28,89.19 C692.5,106.17 657.62,127.93 623.18,138 C579.85,150.67 461.95,128.86 420.18,146 C397.29,155.39 380.4766,167.7423 363.0966,184.6023 " fill="transparent" id="InvoiceRoutes-to-InvoiceController" style="stroke:#181818;stroke-width:1;"/><polygon fill="#181818" points="358.79,188.78,368.035,185.3845,362.3788,185.2986,362.4647,179.6424,358.79,188.78" style="stroke:#181818;stroke-width:1;"/><polygon fill="#000000" points="662.353,130.8704,671.8516,131.3487,670.3186,125.6742,662.353,130.8704" style="stroke:#000000;stroke-width:1;"/><text fill="#000000" font-family="sans-serif" font-size="13" lengthAdjust="spacing" textLength="29.7832" x="676.18" y="134.0669">uses</text></g><!--link UserRoutes to Auth--><g id="link_UserRoutes_Auth"><path codeLine="107" d="M896.25,89.34 C886.82,121.09 871.6375,172.2381 861.1375,207.6081 " fill="transparent" id="UserRoutes-to-Auth" style="stroke:#181818;stroke-width:1;"/><polygon fill="#181818" points="859.43,213.36,865.8259,205.8705,860.8529,208.5667,858.1567,203.5938,859.43,213.36" style="stroke:#181818;stroke-width:1;"/><polygon fill="#000000" points="888.7569,134.3596,894.1487,126.5251,888.5139,124.8522,888.7569,134.3596" style="stroke:#000000;stroke-width:1;"/><text fill="#000000" font-family="sans-serif" font-size="13" lengthAdjust="spacing" textLength="29.7832" x="899.18" y="134.0669">uses</text></g><!--link ProductRoutes to Auth--><g id="link_ProductRoutes_Auth"><path codeLine="108" d="M569.42,89.17 C565.08,105.02 563.04,125.37 575.18,138 C590.59,154.04 755.45,135.73 775.18,146 C802.82,160.39 820.3505,184.8052 832.8405,207.8452 " fill="transparent" id="ProductRoutes-to-Auth" style="stroke:#181818;stroke-width:1;"/><polygon fill="#181818" points="835.7,213.12,834.9273,203.3015,833.3171,208.7243,827.8943,207.1141,835.7,213.12" style="stroke:#181818;stroke-width:1;"/><polygon fill="#000000" points="584.7387,131.6202,577.6991,125.2253,575.2847,130.5844,584.7387,131.6202" style="stroke:#000000;stroke-width:1;"/><text fill="#000000" font-family="sans-serif" font-size="13" lengthAdjust="spacing" textLength="29.7832" x="589.18" y="134.0669">uses</text></g><!--link InvoiceRoutes to Auth--><g id="link_InvoiceRoutes_Auth"><path codeLine="109" d="M738.08,89.12 C734.26,104.53 732.55,124.39 743.18,138 C752.2,149.56 762.94,137.94 775.18,146 C800.67,162.79 817.909,186.0936 830.919,208.1236 " fill="transparent" id="InvoiceRoutes-to-Auth" style="stroke:#181818;stroke-width:1;"/><polygon fill="#181818" points="833.97,213.29,832.8377,203.5064,831.4275,208.9847,825.9492,207.5745,833.97,213.29" style="stroke:#181818;stroke-width:1;"/><polygon fill="#000000" points="751.2555,133.5087,748.0091,124.5693,743.3747,128.1848,751.2555,133.5087" style="stroke:#000000;stroke-width:1;"/><text fill="#000000" font-family="sans-serif" font-size="13" lengthAdjust="spacing" textLength="29.7832" x="757.18" y="134.0669">uses</text></g><!--link UserRoutes to PasswordEncrypt--><g id="link_UserRoutes_PasswordEncrypt"><path codeLine="111" d="M959.32,68.2 C1034.23,73.31 1168.94,90.2 1268.18,146 C1297.44,162.45 1319.49,186.2133 1336.6,208.3433 " fill="transparent" id="UserRoutes-to-PasswordEncrypt" style="stroke:#181818;stroke-width:1;"/><polygon fill="#181818" points="1340.27,213.09,1337.9295,203.5233,1337.2117,209.1344,1331.6006,208.4166,1340.27,213.09" style="stroke:#181818;stroke-width:1;"/><polygon fill="#000000" points="1259.8671,131.3075,1252.4114,125.4029,1250.3647,130.9129,1259.8671,131.3075" style="stroke:#000000;stroke-width:1;"/><text fill="#000000" font-family="sans-serif" font-size="13" lengthAdjust="spacing" textLength="29.7832" x="1264.18" y="134.0669">uses</text></g><!--link UserRoutes to MulterConfig--><g id="link_UserRoutes_MulterConfig"><path codeLine="112" d="M959.44,68.78 C1082.78,75.73 1372.63,96.94 1456.18,146 C1479.88,159.92 1495.8986,178.9573 1509.3486,199.8173 " fill="transparent" id="UserRoutes-to-MulterConfig" style="stroke:#181818;stroke-width:1;"/><polygon fill="#181818" points="1512.6,204.86,1511.0847,195.1284,1509.8905,200.6578,1504.3611,199.4636,1512.6,204.86" style="stroke:#181818;stroke-width:1;"/><polygon fill="#000000" points="1443.0438,130.7254,1434.9263,125.7699,1433.5638,131.4876,1443.0438,130.7254" style="stroke:#000000;stroke-width:1;"/><text fill="#000000" font-family="sans-serif" font-size="13" lengthAdjust="spacing" textLength="29.7832" x="1447.18" y="134.0669">uses</text></g><!--link UserRoutes to SharpMiddleware--><g id="link_UserRoutes_SharpMiddleware"><path codeLine="113" d="M918.24,89.26 C924.33,98.95 931.3,110.4 937.18,121 C954.28,151.85 969.374,182.7217 981.254,207.9517 " fill="transparent" id="UserRoutes-to-SharpMiddleware" style="stroke:#181818;stroke-width:1;"/><polygon fill="#181818" points="983.81,213.38,983.5948,203.5335,981.68,208.8564,976.3571,206.9415,983.81,213.38" style="stroke:#181818;stroke-width:1;"/><polygon fill="#000000" points="952.5246,133.9826,950.879,124.6155,945.6874,127.3717,952.5246,133.9826" style="stroke:#000000;stroke-width:1;"/><text fill="#000000" font-family="sans-serif" font-size="13" lengthAdjust="spacing" textLength="29.7832" x="959.18" y="134.0669">uses</text></g><!--link DBConnection to User--><g id="link_DBConnection_User"><path codeLine="115" d="M663.79,277.77 C648.8,294.15 630.53,314.75 615.18,334 C598.08,355.44 583.9662,374.3767 567.9462,396.8167 " fill="transparent" id="DBConnection-to-User" style="stroke:#181818;stroke-width:1;"/><polygon fill="#181818" points="564.46,401.7,572.9448,396.6992,567.3652,397.6306,566.4338,392.0509,564.46,401.7" style="stroke:#181818;stroke-width:1;"/><polygon fill="#000000" points="617.0444,346.4611,625.0059,341.2586,620.4275,337.5725,617.0444,346.4611" style="stroke:#000000;stroke-width:1;"/><text fill="#000000" font-family="sans-serif" font-size="13" lengthAdjust="spacing" textLength="58.5952" x="629.18" y="347.0669">connects</text></g><!--link DBConnection to Product--><g id="link_DBConnection_Product"><path codeLine="116" d="M722.57,277.62 C740.44,298.77 761.6,328.38 771.18,359 C830.3,548.03 816,623.09 733.18,803 C720.58,830.36 705.5157,852.2198 686.2057,875.0398 " fill="transparent" id="DBConnection-to-Product" style="stroke:#181818;stroke-width:1;"/><polygon fill="#181818" points="682.33,879.62,691.1971,875.3335,685.5598,875.8031,685.0901,870.1658,682.33,879.62" style="stroke:#181818;stroke-width:1;"/><polygon fill="#000000" points="805.8762,623.5572,809.3593,614.7074,803.4923,614.3502,805.8762,623.5572" style="stroke:#000000;stroke-width:1;"/><text fill="#000000" font-family="sans-serif" font-size="13" lengthAdjust="spacing" textLength="58.5952" x="815.18" y="623.0669">connects</text></g><!--link DBConnection to Invoice--><g id="link_DBConnection_Invoice"><path codeLine="117" d="M695.74,277.87 C696.75,298.78 696.75,326.75 692.18,351 C672.01,457.99 663.83,488.27 605.18,580 C585.74,610.4 562.546,632.5659 532.776,653.5259 " fill="transparent" id="DBConnection-to-Invoice" style="stroke:#181818;stroke-width:1;"/><polygon fill="#181818" points="527.87,656.98,537.5318,655.0695,531.9583,654.1015,532.9262,648.5281,527.87,656.98" style="stroke:#181818;stroke-width:1;"/><polygon fill="#000000" points="693.1901,495.6534,699.486,488.5251,694.0937,486.1858,693.1901,495.6534" style="stroke:#000000;stroke-width:1;"/><text fill="#000000" font-family="sans-serif" font-size="13" lengthAdjust="spacing" textLength="58.5952" x="704.18" y="495.5669">connects</text></g><!--SRC=[XLGzRzim4DtzAmWjRT5uwAeXW5rt2507HGnFHGT6OYGY4gcGfmH2aF_U4qLA_92TJNhtxkxT5pjQFDEAaUmeIzReZBnl22aQgZKvQwRCBo7VdxZIS4zRbfCJA2wg2KRU2ifQofiGwZ3WcrHbY2hPHAwyHJ5d5NbpySe4I3NavEyV9Sk-W7-JfL2C0Yjta9C3VY3uiPaBi5HNWqY4bamNYdV0fOZaAbuWzxvl7vcQ80soU0wX0ZDMHfNlUrNIdNYL6Df9wh75kMcqosiKQwpptNxdhemRyj9J0Hm6f-A613e_R4z00crshUm5n2LGw7KycA75tXuPrBByl10ifNCRyrCAm0asJ2LhivZyIa-y4kVkwpS__CXsoCZvBIik390ECeqwnR1c5wPYO16TGllXhep3sw5S2c_DNYoBw1IQmu_bTENYVJAzjvdzBXvvMJRiZIhcDt7NG-rKKFnEEcBlwPSerD3DArvJNJjJxFB0Ndgc0HjSBHKg7umzZdq3PfPFl78EU0OATRiA6qdBqEbKKzKjHSr-8RpIY0VP0qisQK8Dc2x4kj5sF33wYSx0muVkiCSQ1Il6Ts0U_OGSzelIBzZ2XeuaNVDERypxcFt8o7PBifQA8PjVd9oWFr0kDBbTuxbd07bcnKQQmonb9AEFSSx98skag3G1kSwyaduJ7UHsU-kYeXTsP2Ib5pRIbdWBCpsMaRaKj30ttlnSKiyj9tZlNcwFcQgPoU5mlTHhv5Y1kQehUKDxcYgqnz7Zcvo94Iyugqka-8oMhC6sUiEq6pjo4agm61TPtbREhFy0]--></g></svg>