<svg xmlns="http://www.w3.org/2000/svg" xmlns:xlink="http://www.w3.org/1999/xlink" contentStyleType="text/css" data-diagram-type="CLASS" height="752px" preserveAspectRatio="none" style="width:700px;height:752px;background:#FFFFFF;" version="1.1" viewBox="0 0 700 752" width="700px" zoomAndPan="magnify"><defs/><g><!--class User--><g id="elem_User"><rect codeLine="2" fill="#F1F1F1" height="194.6719" id="User" rx="2.5" ry="2.5" style="stroke:#181818;stroke-width:0.5;" width="202.4492" x="252.5" y="7"/><ellipse cx="333.5195" cy="23" fill="#ADD1B2" rx="11" ry="11" style="stroke:#181818;stroke-width:1;"/><path d="M336.4883,28.6406 Q335.9102,28.9375 335.2695,29.0781 Q334.6289,29.2344 333.9258,29.2344 Q331.4258,29.2344 330.0977,27.5938 Q328.7852,25.9375 328.7852,22.8125 Q328.7852,19.6875 330.0977,18.0313 Q331.4258,16.375 333.9258,16.375 Q334.6289,16.375 335.2695,16.5313 Q335.9258,16.6875 336.4883,16.9844 L336.4883,19.7031 Q335.8633,19.125 335.2695,18.8594 Q334.6758,18.5781 334.0508,18.5781 Q332.707,18.5781 332.0195,19.6563 Q331.332,20.7188 331.332,22.8125 Q331.332,24.9063 332.0195,25.9844 Q332.707,27.0469 334.0508,27.0469 Q334.6758,27.0469 335.2695,26.7813 Q335.8633,26.5 336.4883,25.9219 L336.4883,28.6406 Z " fill="#000000"/><text fill="#000000" font-family="sans-serif" font-size="14" lengthAdjust="spacing" textLength="31.9102" x="354.0195" y="27.8467">User</text><line style="stroke:#181818;stroke-width:0.5;" x1="253.5" x2="453.9492" y1="39" y2="39"/><ellipse cx="263.5" cy="52.6484" fill="transparent" rx="3" ry="3" style="stroke:#038048;stroke-width:1;"/><text fill="#000000" font-family="sans-serif" font-size="14" lengthAdjust="spacing" textLength="119.6084" x="272.5" y="55.9951">firstName: String</text><ellipse cx="263.5" cy="68.9453" fill="transparent" rx="3" ry="3" style="stroke:#038048;stroke-width:1;"/><text fill="#000000" font-family="sans-serif" font-size="14" lengthAdjust="spacing" textLength="117.5029" x="272.5" y="72.292">lastName: String</text><ellipse cx="263.5" cy="85.2422" fill="transparent" rx="3" ry="3" style="stroke:#038048;stroke-width:1;"/><text fill="#000000" font-family="sans-serif" font-size="14" lengthAdjust="spacing" textLength="159.8311" x="272.5" y="88.5889">email: String {unique}</text><ellipse cx="263.5" cy="101.5391" fill="transparent" rx="3" ry="3" style="stroke:#038048;stroke-width:1;"/><text fill="#000000" font-family="sans-serif" font-size="14" lengthAdjust="spacing" textLength="117.6602" x="272.5" y="104.8857">password: String</text><ellipse cx="263.5" cy="117.8359" fill="transparent" rx="3" ry="3" style="stroke:#038048;stroke-width:1;"/><text fill="#000000" font-family="sans-serif" font-size="14" lengthAdjust="spacing" textLength="176.4492" x="272.5" y="121.1826">role: String [user, admin]</text><ellipse cx="263.5" cy="134.1328" fill="transparent" rx="3" ry="3" style="stroke:#038048;stroke-width:1;"/><text fill="#000000" font-family="sans-serif" font-size="14" lengthAdjust="spacing" textLength="114.4473" x="272.5" y="137.4795">imageUrl: String</text><ellipse cx="263.5" cy="150.4297" fill="transparent" rx="3" ry="3" style="stroke:#038048;stroke-width:1;"/><text fill="#000000" font-family="sans-serif" font-size="14" lengthAdjust="spacing" textLength="140.4307" x="272.5" y="153.7764">inventory: [Product]</text><ellipse cx="263.5" cy="166.7266" fill="transparent" rx="3" ry="3" style="stroke:#038048;stroke-width:1;"/><text fill="#000000" font-family="sans-serif" font-size="14" lengthAdjust="spacing" textLength="111.3301" x="272.5" y="170.0732">createdAt: Date</text><ellipse cx="263.5" cy="183.0234" fill="transparent" rx="3" ry="3" style="stroke:#038048;stroke-width:1;"/><text fill="#000000" font-family="sans-serif" font-size="14" lengthAdjust="spacing" textLength="148.668" x="272.5" y="186.3701">timestamps: Boolean</text><line style="stroke:#181818;stroke-width:0.5;" x1="253.5" x2="453.9492" y1="193.6719" y2="193.6719"/></g><!--class Product--><g id="elem_Product"><rect codeLine="14" fill="#F1F1F1" height="162.0781" id="Product" rx="2.5" ry="2.5" style="stroke:#181818;stroke-width:0.5;" width="174.668" x="7" y="583"/><ellipse cx="63.229" cy="599" fill="#ADD1B2" rx="11" ry="11" style="stroke:#181818;stroke-width:1;"/><path d="M66.1978,604.6406 Q65.6196,604.9375 64.979,605.0781 Q64.3384,605.2344 63.6353,605.2344 Q61.1353,605.2344 59.8071,603.5938 Q58.4946,601.9375 58.4946,598.8125 Q58.4946,595.6875 59.8071,594.0313 Q61.1353,592.375 63.6353,592.375 Q64.3384,592.375 64.979,592.5313 Q65.6353,592.6875 66.1978,592.9844 L66.1978,595.7031 Q65.5728,595.125 64.979,594.8594 Q64.3853,594.5781 63.7603,594.5781 Q62.4165,594.5781 61.729,595.6563 Q61.0415,596.7188 61.0415,598.8125 Q61.0415,600.9063 61.729,601.9844 Q62.4165,603.0469 63.7603,603.0469 Q64.3853,603.0469 64.979,602.7813 Q65.5728,602.5 66.1978,601.9219 L66.1978,604.6406 Z " fill="#000000"/><text fill="#000000" font-family="sans-serif" font-size="14" lengthAdjust="spacing" textLength="53.71" x="83.729" y="603.8467">Product</text><line style="stroke:#181818;stroke-width:0.5;" x1="8" x2="180.668" y1="615" y2="615"/><ellipse cx="18" cy="628.6484" fill="transparent" rx="3" ry="3" style="stroke:#038048;stroke-width:1;"/><text fill="#000000" font-family="sans-serif" font-size="14" lengthAdjust="spacing" textLength="90.6514" x="27" y="631.9951">name: String</text><ellipse cx="18" cy="644.9453" fill="transparent" rx="3" ry="3" style="stroke:#038048;stroke-width:1;"/><text fill="#000000" font-family="sans-serif" font-size="14" lengthAdjust="spacing" textLength="128.7891" x="27" y="648.292">description: String</text><ellipse cx="18" cy="661.2422" fill="transparent" rx="3" ry="3" style="stroke:#038048;stroke-width:1;"/><text fill="#000000" font-family="sans-serif" font-size="14" lengthAdjust="spacing" textLength="100.249" x="27" y="664.5889">price: Number</text><ellipse cx="18" cy="677.5391" fill="transparent" rx="3" ry="3" style="stroke:#038048;stroke-width:1;"/><text fill="#000000" font-family="sans-serif" font-size="14" lengthAdjust="spacing" textLength="102.5596" x="27" y="680.8857">stock: Number</text><ellipse cx="18" cy="693.8359" fill="transparent" rx="3" ry="3" style="stroke:#038048;stroke-width:1;"/><text fill="#000000" font-family="sans-serif" font-size="14" lengthAdjust="spacing" textLength="112.8203" x="27" y="697.1826">category: String</text><ellipse cx="18" cy="710.1328" fill="transparent" rx="3" ry="3" style="stroke:#038048;stroke-width:1;"/><text fill="#000000" font-family="sans-serif" font-size="14" lengthAdjust="spacing" textLength="111.3301" x="27" y="713.4795">createdAt: Date</text><ellipse cx="18" cy="726.4297" fill="transparent" rx="3" ry="3" style="stroke:#038048;stroke-width:1;"/><text fill="#000000" font-family="sans-serif" font-size="14" lengthAdjust="spacing" textLength="148.668" x="27" y="729.7764">timestamps: Boolean</text><line style="stroke:#181818;stroke-width:0.5;" x1="8" x2="180.668" y1="737.0781" y2="737.0781"/></g><!--class Invoice--><g id="elem_Invoice"><rect codeLine="24" fill="#F1F1F1" height="227.2656" id="Invoice" rx="2.5" ry="2.5" style="stroke:#181818;stroke-width:0.5;" width="473.665" x="219.5" y="279"/><ellipse cx="427.0562" cy="295" fill="#ADD1B2" rx="11" ry="11" style="stroke:#181818;stroke-width:1;"/><path d="M430.0249,300.6406 Q429.4468,300.9375 428.8062,301.0781 Q428.1655,301.2344 427.4624,301.2344 Q424.9624,301.2344 423.6343,299.5938 Q422.3218,297.9375 422.3218,294.8125 Q422.3218,291.6875 423.6343,290.0313 Q424.9624,288.375 427.4624,288.375 Q428.1655,288.375 428.8062,288.5313 Q429.4624,288.6875 430.0249,288.9844 L430.0249,291.7031 Q429.3999,291.125 428.8062,290.8594 Q428.2124,290.5781 427.5874,290.5781 Q426.2437,290.5781 425.5562,291.6563 Q424.8687,292.7188 424.8687,294.8125 Q424.8687,296.9063 425.5562,297.9844 Q426.2437,299.0469 427.5874,299.0469 Q428.2124,299.0469 428.8062,298.7813 Q429.3999,298.5 430.0249,297.9219 L430.0249,300.6406 Z " fill="#000000"/><text fill="#000000" font-family="sans-serif" font-size="14" lengthAdjust="spacing" textLength="50.0527" x="447.5562" y="299.8467">Invoice</text><line style="stroke:#181818;stroke-width:0.5;" x1="220.5" x2="692.165" y1="311" y2="311"/><ellipse cx="230.5" cy="324.6484" fill="transparent" rx="3" ry="3" style="stroke:#038048;stroke-width:1;"/><text fill="#000000" font-family="sans-serif" font-size="14" lengthAdjust="spacing" textLength="98.3145" x="239.5" y="327.9951">user: ObjectId</text><ellipse cx="230.5" cy="340.9453" fill="transparent" rx="3" ry="3" style="stroke:#038048;stroke-width:1;"/><text fill="#000000" font-family="sans-serif" font-size="14" lengthAdjust="spacing" textLength="84.9844" x="239.5" y="344.292">products: [{</text><text fill="#000000" font-family="sans-serif" font-size="14" lengthAdjust="spacing" textLength="126.3828" x="239.5" y="360.5889">product: ObjectId,</text><text fill="#000000" font-family="sans-serif" font-size="14" lengthAdjust="spacing" textLength="128.2217" x="239.5" y="376.8857">quantity: Number,</text><text fill="#000000" font-family="sans-serif" font-size="14" lengthAdjust="spacing" textLength="100.249" x="239.5" y="393.1826">price: Number</text><text fill="#000000" font-family="sans-serif" font-size="14" lengthAdjust="spacing" textLength="14.3691" x="239.5" y="409.4795">}]</text><ellipse cx="230.5" cy="422.4297" fill="transparent" rx="3" ry="3" style="stroke:#038048;stroke-width:1;"/><text fill="#000000" font-family="sans-serif" font-size="14" lengthAdjust="spacing" textLength="152.4346" x="239.5" y="425.7764">totalAmount: Number</text><ellipse cx="230.5" cy="438.7266" fill="transparent" rx="3" ry="3" style="stroke:#038048;stroke-width:1;"/><text fill="#000000" font-family="sans-serif" font-size="14" lengthAdjust="spacing" textLength="281.0322" x="239.5" y="442.0732">status: String [pending, paid, cancelled]</text><ellipse cx="230.5" cy="455.0234" fill="transparent" rx="3" ry="3" style="stroke:#038048;stroke-width:1;"/><text fill="#000000" font-family="sans-serif" font-size="14" lengthAdjust="spacing" textLength="447.665" x="239.5" y="458.3701">paymentMethod: String [credit_card, debit_card, bank_transfer]</text><ellipse cx="230.5" cy="471.3203" fill="transparent" rx="3" ry="3" style="stroke:#038048;stroke-width:1;"/><text fill="#000000" font-family="sans-serif" font-size="14" lengthAdjust="spacing" textLength="111.3301" x="239.5" y="474.667">createdAt: Date</text><ellipse cx="230.5" cy="487.6172" fill="transparent" rx="3" ry="3" style="stroke:#038048;stroke-width:1;"/><text fill="#000000" font-family="sans-serif" font-size="14" lengthAdjust="spacing" textLength="148.668" x="239.5" y="490.9639">timestamps: Boolean</text><line style="stroke:#181818;stroke-width:0.5;" x1="220.5" x2="692.165" y1="498.2656" y2="498.2656"/></g><!--link User to Product--><g id="link_User_Product"><path codeLine="39" d="M252.34,141.26 C191.27,168.7 118.5,213.21 82.5,279 C30.87,373.35 46.1268,489.5615 66.6468,571.2615 " fill="transparent" id="User-to-Product" style="stroke:#181818;stroke-width:1;"/><polygon fill="transparent" points="69.57,582.9,71.9879,576.1064,66.6468,571.2615,64.2289,578.0551,69.57,582.9" style="stroke:#181818;stroke-width:1;"/><polygon fill="#000000" points="85.5177,397.1567,91.8018,390.018,86.4056,387.6876,85.5177,397.1567" style="stroke:#000000;stroke-width:1;"/><text fill="#000000" font-family="sans-serif" font-size="13" lengthAdjust="spacing" textLength="104.9648" x="96.5" y="397.0669">has in inventory</text><text fill="#000000" font-family="sans-serif" font-size="13" lengthAdjust="spacing" textLength="8.271" x="236.2819" y="140.5848">1</text><text fill="#000000" font-family="sans-serif" font-size="13" lengthAdjust="spacing" textLength="23.0356" x="43.2286" y="571.8016">0..*</text></g><!--link User to Invoice--><g id="link_User_Invoice"><path codeLine="40" d="M342.56,202.18 C343.28,218.1 345.6,234.22 350.5,249 C353.84,259.1 352.6555,258.4229 357.7155,268.1129 " fill="transparent" id="User-to-Invoice" style="stroke:#181818;stroke-width:1;"/><polygon fill="transparent" points="363.27,278.75,364.0384,271.58,357.7155,268.1129,356.947,275.283,363.27,278.75" style="stroke:#181818;stroke-width:1;"/><polygon fill="#000000" points="356.6201,245.4393,357.4581,235.9658,351.7296,237.2825,356.6201,245.4393" style="stroke:#000000;stroke-width:1;"/><text fill="#000000" font-family="sans-serif" font-size="13" lengthAdjust="spacing" textLength="48.3247" x="364.5" y="245.0669">creates</text><text fill="#000000" font-family="sans-serif" font-size="13" lengthAdjust="spacing" textLength="8.271" x="333.5033" y="221.6586">1</text><text fill="#000000" font-family="sans-serif" font-size="13" lengthAdjust="spacing" textLength="23.0356" x="333.5726" y="268.0451">0..*</text></g><!--link Invoice to User--><g id="link_Invoice_User"><path codeLine="41" d="M432.42,278.97 C428.02,263.03 423.04,246.97 417.5,232 C413.87,222.19 414.6107,223.0947 410.1507,213.1747 " fill="transparent" id="Invoice-to-User" style="stroke:#181818;stroke-width:1;"/><polygon fill="transparent" points="405.23,202.23,404.0421,209.3426,410.1507,213.1747,411.3386,206.0621,405.23,202.23" style="stroke:#181818;stroke-width:1;"/><polygon fill="#000000" points="425.897,235.8303,426.013,245.3402,431.5806,243.4558,425.897,235.8303" style="stroke:#000000;stroke-width:1;"/><text fill="#000000" font-family="sans-serif" font-size="13" lengthAdjust="spacing" textLength="68.2627" x="436.5" y="245.0669">belongs to</text><text fill="#000000" font-family="sans-serif" font-size="13" lengthAdjust="spacing" textLength="23.0356" x="407.0419" y="267.9007">0..*</text><text fill="#000000" font-family="sans-serif" font-size="13" lengthAdjust="spacing" textLength="8.271" x="400.5797" y="221.7121">1</text></g><!--link Invoice to Product--><g id="link_Invoice_Product"><path codeLine="42" d="M305.34,506.04 C263.37,537.28 228.8158,563.0046 191.8058,590.5546 " fill="transparent" id="Invoice-to-Product" style="stroke:#181818;stroke-width:1;"/><polygon fill="transparent" points="182.18,597.72,189.3814,597.3459,191.8058,590.5546,184.6045,590.9287,182.18,597.72" style="stroke:#181818;stroke-width:1;"/><polygon fill="#000000" points="266.4892,547.552,275.4997,544.5085,271.9899,539.7935,266.4892,547.552" style="stroke:#000000;stroke-width:1;"/><text fill="#000000" font-family="sans-serif" font-size="13" lengthAdjust="spacing" textLength="55.0278" x="279.5" y="549.0669">contains</text><text fill="#000000" font-family="sans-serif" font-size="13" lengthAdjust="spacing" textLength="23.0356" x="271.4237" y="526.2348">0..*</text><text fill="#000000" font-family="sans-serif" font-size="13" lengthAdjust="spacing" textLength="23.0356" x="189.7875" y="589.1402">1..*</text></g><!--SRC=[bLAxJWCn4EplArPfaE10q5w11AAXu24GLOJGdhqa2_RwiFT04Sg_utlaGO22pXhFU6Tsl0TNmP9BXN6O4ZmaYl1P01mySqnwZPugkDV8Ckl0pFc1aKTsAm0-M-6tbfRTJPDV_0ZHRhDZS6irJDiyhWIqdkMnksMFCtg8Rbl1yawY8IugcDx6O5kZFTT4GYLxfXLSv4C7ANjAYhv95Po7F0cbM1PZj54xf9ET49QIYTme1zc6cyWcywvRNrFiWAJ1l6u39e-UzUOsglywkvJtaESCphgLL71Jlv3HIpkOw8rdvRHZ08p0XbNsy5kBegoBbRro97-FiEoNfq7HdVdGYdwFXzgcJJyDYSs74XfaMu91CUGSsSUXteNFpLoHpeFTQ79wo_faC6Q5fNfzhb5UdpIYf6UA_wnm3-x8OLTFcdEJYlwVJaucS7WOO79yTBG_MHTSmHmJiC3wvy3fhuBLtYiOZAJCMs4ZfMTdLI-le2ONP9P0mr_K7IScY29BVlaB]--></g></svg>